<?xml version="1.0" encoding="utf-8"?>
<!-- Generator: Adobe Illustrator 25.4.0, SVG Export Plug-In . SVG Version: 6.00 Build 0)  -->
<svg version="1.1" id="Capa_1" xmlns="http://www.w3.org/2000/svg" xmlns:xlink="http://www.w3.org/1999/xlink" x="0px" y="0px"
	 viewBox="0 0 155.1 155.1" style="enable-background:new 0 0 155.1 155.1;" xml:space="preserve">
<style type="text/css">
	.st0{fill:#010002;}
</style>
<g>
	<g>
		<path style="fill:#2E5090" class="st0" d="M150.7,84.1c7.9-7.8,5.4-23.6-8.2-23.6l-35.8,0c1.4-7.6,3.3-20.2,3.3-21.3c-0.8-11.2-7.9-24.9-8.2-25.5
			c-1.3-2.4-7.9-5.7-14.5-4.3c-8.6,1.8-9.5,7.3-9.4,8.8c0,0,0.4,15,0.4,19c-4.1,9-18.3,32.7-22.5,34.5c-1-0.6-2.2-1-3.4-1H6.9
			c-3.8,0-6.9,3.1-6.9,6.9l0,62.5c0.3,3.4,3.1,6,6.5,6h40.6c3.6,0,6.5-2.9,6.5-6.5v-2.1c0,0,1.5-0.1,2.2,0.3
			c2.6,1.7,5.8,3.7,10.1,3.7h60.6c22.7,0,20.2-20.1,18.2-22.9c3.8-4.2,6.2-11.5,3-17.3C150.2,98.8,154.6,91.6,150.7,84.1z"/>
	</g>
</g>
</svg>
